<svg width="182.27" height="176.82" viewBox="0 0 182.27 176.82" >
<g transform="translate(-258.87,-443.92)" ><path d="m 322.5,731.65 a 48.571,48.571 0 1 1 -97.14,0 48.571,48.571 0 1 1 97.14,0 z"
     transform="matrix(-.56139,-1.7242,1.7789,-.54937,-797.75,1406.6)" style="fill:#ececec;stroke:#666;stroke-width:.55377;" />
<path d="m 322.5,731.65 a 48.571,48.571 0 1 1 -97.14,0 48.571,48.571 0 1 1 97.14,0 z"
 transform="matrix(-.2561,-.78658,.8115,-.25062,-173.62,931.19)" style="fill:#fff;stroke:#666;stroke-width:1.12671;" />
 <path d="m 708.57,717.36 a 13.571,13.571 0 1 1 -27.14,0 13.571,13.571 0 1 1 27.14,0 z" transform="matrix(.72088,0,0,.72088,-87.271,7.1888)" style="fill:#4d4d4d;" />
 <g transform="matrix(.99999,-.00517,.00517,.99999,-791.85,-379.17)" style="fill:#4d4d4d;">
     <path d="m 1141.4,847.77 c 0,-.73 -.2,-1.35 -.5,-1.88 -.3,-.52 -.8,-.93 -1.5,-1.23 -.5,-.21 -1.1,-.33 -1.8,-.37 -.7,-.1 -1.5,-.1 -2.3,-.1 l -2.8,0 0,7.83 2.3,0 c 1.2,0 2.2,-.1 3,-.17 .8,-.12 1.5,-.39 2.1,-.8 .5,-.4 .9,-.85 1.1,-1.33 .3,-.49 .4,-1.15 .4,-1.97 m 11.6,20.19 -9.1,0 -7.9,-10.68 -3.5,0 0,10.66 -7.5,0 .1,-29.08 12.6,0 c 1.7,0 3.2,.1 4.4,.3 1.2,.2 2.4,.62 3.5,1.27 1.1,.66 1.9,1.5 2.6,2.55 .6,1.03 .9,2.32 .9,3.88 0,2.15 -.5,3.9 -1.5,5.26 -1,1.35 -2.4,2.47 -4.2,3.37 l 9.6,12.47" />
     <path d="m 1173.2,881.25 -17.9,-10.98 15.2,-24.8 17.9,10.98 -2.9,4.79 -11.6,-7.08 -2.6,4.28 10.7,6.58 -2.9,4.79 -10.8,-6.57 -3.7,6.13 11.6,7.08 -3,4.8" />
     <path d="m 1213,889.93 -30.4,5.86 -4.3,-7.21 19.5,-24.04 4,6.75 -13.9,16.53 21.2,-4.47 3.9,6.58" />
     <path d="m 1180.9,943.56 6.8,-19.86 27.5,9.37 -2.4,7.1 -22.2,-7.56 -4.4,12.76 -5.3,-1.81" />
     <path d="m 1180.5,983.82 -12,-28.53 6.2,-5.71 27.5,14.11 -5.8,5.35 -19,-10.2 8.7,19.76 -5.6,5.22" />
     <path d="m 1141,966.99 20.2,-6.08 8.4,27.84 -20.1,6.08 -1.7,-5.38 13,-3.93 -1.4,-4.8 -12.1,3.64 -1.6,-5.39 12,-3.64 -2,-6.88 -13,3.93 -1.7,-5.39" />
     <path d="m 1116,983.31 c -.1,.71 -.1,1.36 0,1.93 .2,.58 .6,1.09 1.3,1.55 .4,.32 1,.58 1.6,.77 .7,.2 1.4,.41 2.3,.61 l 2.6,.62 1.8,-7.63 -2.2,-.52 c -1.2,-.27 -2.2,-.45 -3,-.51 -.8,-.1 -1.5,0 -2.2,.31 -.6,.28 -1,.62 -1.4,1.04 -.3,.42 -.6,1.04 -.8,1.83 m -6.8,-22.3 8.9,2.08 5.3,12.19 3.4,.79 2.4,-10.39 7.3,1.7 -6.6,28.32 -12.3,-2.86 c -1.6,-.39 -3.1,-.83 -4.2,-1.3 -1.2,-.47 -2.2,-1.15 -3.1,-2.02 -.9,-.89 -1.6,-1.91 -2,-3.07 -.4,-1.15 -.4,-2.48 0,-4.01 .5,-2.09 1.3,-3.68 2.6,-4.77 1.3,-1.09 2.9,-1.87 4.9,-2.32 l -6.6,-14.34" />
     <path d="m 1087.5,935.78 4.8,5.77 -15.1,12.33 13.2,-3.83 3.3,4.01 -6.4,12.17 15.1,-12.32 4.4,5.47 -22.5,18.41 -5.5,-6.75 7.2,-14.29 -15.5,4.18 -5.5,-6.75 22.5,-18.4" style="fill:#808080" /><path d="m 1086.1,902.49 .1,7.75 -5.9,2.07 .1,10.78 5.9,1.96 .1,7.55 -29.2,-10.48 -.1,-8.63 29,-11 m -11.1,11.68 -10.4,3.67 10.4,3.48 0,-7.15" style="fill:#808080" />
     <path d="m 1084.6,868.94 c 1.1,.71 2.1,1.6 2.9,2.66 .7,1.06 1.3,2.17 1.5,3.34 .3,1.6 .3,3.16 .1,4.68 -.3,1.51 -1.1,3.15 -2.2,4.93 l -2.6,3.91 8,5.18 -4.1,6.28 -24.4,-15.91 6.8,-10.33 c 1,-1.55 2,-2.76 2.9,-3.64 1,-.9 2,-1.58 3.1,-2.05 1.2,-.56 2.6,-.77 3.9,-.63 1.3,.13 2.7,.66 4.1,1.58 m -4.1,6.58 c -.7,-.45 -1.4,-.64 -2.1,-.59 -.7,0 -1.4,.24 -1.9,.6 -.7,.49 -1.2,1.03 -1.7,1.64 -.4,.6 -1,1.42 -1.6,2.45 l -.7,1.08 7.3,4.77 1.1,-1.8 c .7,-1.07 1.2,-1.99 1.6,-2.76 .3,-.79 .4,-1.54 .3,-2.27 -.1,-.63 -.3,-1.19 -.7,-1.67 -.3,-.51 -.9,-.99 -1.6,-1.45" style="fill:#808080" />
     <path d="m 1118.4,860.29 c 1.4,2.5 1.4,5.13 .2,7.89 -1.3,2.73 -3.7,5.11 -7.4,7.14 -2.1,1.17 -4,2.01 -5.8,2.52 -1.7,.5 -3.5,.84 -5.1,1.03 l -3.4,-6.09 .7,-.4 c 1.9,.33 3.9,.31 5.9,0 2,-.35 3.8,-.96 5.3,-1.83 .4,-.22 .9,-.54 1.6,-.97 .6,-.43 1,-.84 1.3,-1.23 .4,-.48 .7,-.96 .8,-1.45 .2,-.49 .1,-1.04 -.2,-1.64 -.3,-.56 -.8,-.9 -1.5,-1.03 -.7,-.15 -1.6,-.1 -2.6,.21 -1.1,.3 -2.2,.65 -3.4,1.06 -1.2,.38 -2.3,.68 -3.4,.89 -2.5,.5 -4.6,.42 -6.2,-.24 -1.6,-.67 -2.9,-1.89 -3.9,-3.66 -1.3,-2.36 -1.3,-4.88 0,-7.55 1.3,-2.68 3.6,-4.96 6.9,-6.81 1.7,-.93 3.4,-1.69 5.2,-2.26 1.8,-.6 3.5,-.98 5,-1.16 l 3.2,5.86 -.7,.39 c -1.5,-.25 -3.1,-.24 -4.9,.1 -1.8,.26 -3.5,.83 -5,1.69 -.5,.3 -1.1,.65 -1.6,1.03 -.5,.37 -.9,.79 -1.3,1.28 -.3,.41 -.6,.89 -.7,1.42 -.1,.52 -.1,1 .2,1.44 .3,.67 .9,1.05 1.6,1.13 .7,.1 1.9,-.15 3.4,-.65 1.1,-.32 2.1,-.63 3,-.93 1,-.3 2.1,-.56 3.2,-.79 2.3,-.45 4.3,-.38 5.8,.21 1.5,.58 2.8,1.74 3.8,3.49" style="fill:#808080" /></g>
     <path d="m 334.08,552.36 0,-30" style="stroke:#808080;stroke-width:8;" /><path d="m 350.08,552.36 0,-40" style="stroke:#808080;stroke-width:8;" /><path d="m 366.08,552.36 0,-20" style="stroke:#808080;stroke-width:8;" /></g></svg>